<mxfile host="app.diagrams.net" modified="2023-11-17T18:27:58.305Z" agent="Mozilla/5.0 (Windows NT 10.0; Win64; x64) AppleWebKit/537.36 (KHTML, like Gecko) Chrome/118.0.0.0 Safari/537.36" etag="c-hqFWmzFu_KYXIWRyVh" version="22.1.3" type="device">
  <diagram name="Página-1" id="QMhXRBUU0fSP6QKLDP-b">
    <mxGraphModel dx="773" dy="383" grid="1" gridSize="10" guides="1" tooltips="1" connect="1" arrows="1" fold="1" page="1" pageScale="1" pageWidth="827" pageHeight="1169" math="0" shadow="0">
      <root>
        <mxCell id="0" />
        <mxCell id="1" parent="0" />
        <mxCell id="AEggwM9k2QyQAVVQcnJe-2" value="«Componente»&lt;br&gt;&lt;b&gt;Celda&lt;/b&gt;" style="html=1;dropTarget=0;whiteSpace=wrap;" vertex="1" parent="1">
          <mxGeometry x="80" y="80" width="160" height="80" as="geometry" />
        </mxCell>
        <mxCell id="AEggwM9k2QyQAVVQcnJe-3" value="" style="shape=module;jettyWidth=8;jettyHeight=4;" vertex="1" parent="AEggwM9k2QyQAVVQcnJe-2">
          <mxGeometry x="1" width="20" height="20" relative="1" as="geometry">
            <mxPoint x="-27" y="7" as="offset" />
          </mxGeometry>
        </mxCell>
        <mxCell id="AEggwM9k2QyQAVVQcnJe-4" value="«Componente»&lt;br&gt;&lt;b&gt;Tablero&lt;/b&gt;" style="html=1;dropTarget=0;whiteSpace=wrap;" vertex="1" parent="1">
          <mxGeometry x="360" y="80" width="160" height="80" as="geometry" />
        </mxCell>
        <mxCell id="AEggwM9k2QyQAVVQcnJe-5" value="" style="shape=module;jettyWidth=8;jettyHeight=4;" vertex="1" parent="AEggwM9k2QyQAVVQcnJe-4">
          <mxGeometry x="1" width="20" height="20" relative="1" as="geometry">
            <mxPoint x="-27" y="7" as="offset" />
          </mxGeometry>
        </mxCell>
        <mxCell id="AEggwM9k2QyQAVVQcnJe-6" value="Depends" style="endArrow=open;endSize=12;dashed=1;html=1;rounded=0;entryX=0;entryY=0.5;entryDx=0;entryDy=0;" edge="1" parent="1" target="AEggwM9k2QyQAVVQcnJe-4">
          <mxGeometry width="160" relative="1" as="geometry">
            <mxPoint x="240" y="120" as="sourcePoint" />
            <mxPoint x="400" y="119.5" as="targetPoint" />
          </mxGeometry>
        </mxCell>
        <mxCell id="AEggwM9k2QyQAVVQcnJe-7" value="«Componente»&lt;br&gt;&lt;b&gt;Temporizador&lt;/b&gt;" style="html=1;dropTarget=0;whiteSpace=wrap;" vertex="1" parent="1">
          <mxGeometry x="360" y="280" width="160" height="80" as="geometry" />
        </mxCell>
        <mxCell id="AEggwM9k2QyQAVVQcnJe-8" value="" style="shape=module;jettyWidth=8;jettyHeight=4;" vertex="1" parent="AEggwM9k2QyQAVVQcnJe-7">
          <mxGeometry x="1" width="20" height="20" relative="1" as="geometry">
            <mxPoint x="-27" y="7" as="offset" />
          </mxGeometry>
        </mxCell>
        <mxCell id="AEggwM9k2QyQAVVQcnJe-9" value="Depends" style="endArrow=open;endSize=12;dashed=1;html=1;rounded=0;exitX=0.5;exitY=0;exitDx=0;exitDy=0;entryX=0.5;entryY=1;entryDx=0;entryDy=0;" edge="1" parent="1" source="AEggwM9k2QyQAVVQcnJe-7" target="AEggwM9k2QyQAVVQcnJe-4">
          <mxGeometry width="160" relative="1" as="geometry">
            <mxPoint x="390" y="220" as="sourcePoint" />
            <mxPoint x="550" y="220" as="targetPoint" />
          </mxGeometry>
        </mxCell>
        <mxCell id="AEggwM9k2QyQAVVQcnJe-11" value="" style="rounded=0;orthogonalLoop=1;jettySize=auto;html=1;endArrow=oval;endFill=0;sketch=0;sourcePerimeterSpacing=0;targetPerimeterSpacing=0;endSize=10;exitX=0.5;exitY=1;exitDx=0;exitDy=0;" edge="1" parent="1" source="AEggwM9k2QyQAVVQcnJe-2">
          <mxGeometry relative="1" as="geometry">
            <mxPoint x="260" y="215" as="sourcePoint" />
            <mxPoint x="160" y="220" as="targetPoint" />
          </mxGeometry>
        </mxCell>
        <mxCell id="AEggwM9k2QyQAVVQcnJe-13" value="Número/ícono" style="text;align=center;fontStyle=1;verticalAlign=middle;spacingLeft=3;spacingRight=3;strokeColor=none;rotatable=0;points=[[0,0.5],[1,0.5]];portConstraint=eastwest;html=1;" vertex="1" parent="1">
          <mxGeometry x="120" y="230" width="80" height="26" as="geometry" />
        </mxCell>
      </root>
    </mxGraphModel>
  </diagram>
</mxfile>
